<svg width="41" height="41" viewBox="0 0 41 41" fill="none" xmlns="http://www.w3.org/2000/svg">
<g clip-path="url(#clip0)">
<path d="M18.4291 28.4046C18.2804 28.4045 18.1379 28.3454 18.0328 28.2403L9.7534 19.9605C9.7013 19.9085 9.65997 19.8467 9.63177 19.7787C9.60358 19.7107 9.58906 19.6377 9.58906 19.5641C9.58906 19.4905 9.60358 19.4176 9.63177 19.3496C9.65997 19.2815 9.7013 19.2198 9.7534 19.1677L12.018 16.9028C12.1251 16.8014 12.2669 16.7449 12.4144 16.7449C12.5618 16.7449 12.7037 16.8014 12.8108 16.9028L18.4291 22.5211L28.1915 12.7589C28.2966 12.6538 28.4391 12.5947 28.5878 12.5946C28.7364 12.5947 28.8789 12.6538 28.984 12.7589L31.2486 15.0238C31.3007 15.0759 31.342 15.1377 31.3702 15.2057C31.3984 15.2737 31.4129 15.3466 31.4129 15.4202C31.4129 15.4939 31.3984 15.5668 31.3702 15.6348C31.342 15.7028 31.3007 15.7646 31.2486 15.8166L18.8253 28.2403C18.7202 28.3454 18.5777 28.4045 18.4291 28.4046ZM10.9424 19.5643L18.4291 27.0513L30.0599 15.4204L28.5865 13.947L18.8253 23.7101C18.7733 23.7622 18.7115 23.8035 18.6434 23.8317C18.5754 23.8599 18.5025 23.8744 18.4289 23.8744C18.3553 23.8744 18.2824 23.8599 18.2143 23.8317C18.1463 23.8035 18.0845 23.7622 18.0325 23.7101L12.4142 18.0918L10.9424 19.5643ZM35.7689 20.4996C35.7643 16.4515 34.1542 12.5705 31.2917 9.70807C28.4293 6.84564 24.5483 5.23551 20.5002 5.23093C18.0974 5.22378 15.7275 5.78973 13.5872 6.88182C13.5186 6.91328 13.4571 6.95827 13.4063 7.01409C13.3555 7.06991 13.3165 7.13542 13.2916 7.20668C13.2667 7.27794 13.2565 7.35349 13.2615 7.4288C13.2666 7.50411 13.2868 7.57762 13.3209 7.64493C13.3551 7.71224 13.4024 7.77197 13.4602 7.82052C13.518 7.86908 13.585 7.90546 13.6572 7.9275C13.7294 7.94953 13.8053 7.95676 13.8803 7.94875C13.9554 7.94074 14.028 7.91765 14.094 7.88088C16.0775 6.86923 18.2736 6.34512 20.5002 6.35203C23.5946 6.35379 26.6031 7.37063 29.064 9.24659C31.525 11.1226 33.3026 13.754 34.1242 16.7374C34.9458 19.7208 34.766 22.8913 33.6125 25.7627C32.4589 28.6341 30.3952 31.0478 27.7379 32.6335C25.0806 34.2192 21.9765 34.8895 18.9017 34.5414C15.8269 34.1933 12.9512 32.8462 10.7156 30.7066C8.48008 28.567 7.00814 25.7531 6.52558 22.6965C6.04303 19.6399 6.57652 16.5094 8.04421 13.7852C8.07921 13.7204 8.1011 13.6494 8.10865 13.5761C8.11619 13.5029 8.10923 13.4289 8.08817 13.3583C8.06712 13.2878 8.03237 13.2221 7.98591 13.165C7.93946 13.1078 7.88221 13.0604 7.81743 13.0254C7.75265 12.9904 7.68161 12.9685 7.60837 12.961C7.53513 12.9534 7.46112 12.9604 7.39057 12.9815C7.32002 13.0025 7.2543 13.0373 7.19718 13.0837C7.14006 13.1302 7.09264 13.1874 7.05765 13.2522C5.95517 15.2973 5.3339 17.567 5.24115 19.8885C5.14841 22.21 5.58662 24.5221 6.52244 26.6486C7.45825 28.7752 8.86698 30.6601 10.6414 32.16C12.4157 33.6598 14.509 34.735 16.7617 35.3036C19.0143 35.8723 21.3671 35.9194 23.6407 35.4413C25.9144 34.9633 28.0489 33.9727 29.8819 32.5451C31.7149 31.1175 33.1979 29.2904 34.2181 27.203C35.2382 25.1156 35.7686 22.8229 35.7689 20.4996ZM10.1698 10.8332C10.4901 10.4911 10.8316 10.1605 11.1855 9.8508C11.2409 9.80228 11.2862 9.74333 11.3188 9.67731C11.3514 9.61129 11.3706 9.53949 11.3755 9.46603C11.3803 9.39256 11.3707 9.31886 11.347 9.24913C11.3234 9.1794 11.2862 9.11501 11.2377 9.05963C11.1892 9.00425 11.1302 8.95897 11.0642 8.92638C10.9982 8.89378 10.9264 8.87451 10.853 8.86967C10.7795 8.86482 10.7058 8.87449 10.6361 8.89812C10.5663 8.92176 10.5019 8.9589 10.4466 9.00742C10.0654 9.3415 9.6967 9.69801 9.3514 10.067C9.30107 10.1207 9.26182 10.1839 9.23589 10.2528C9.20995 10.3217 9.19785 10.395 9.20025 10.4686C9.20266 10.5422 9.21954 10.6146 9.24993 10.6817C9.28032 10.7487 9.32361 10.8091 9.37735 10.8595C9.43109 10.9098 9.49421 10.949 9.56312 10.975C9.63202 11.0009 9.70536 11.013 9.77895 11.0106C9.85254 11.0082 9.92493 10.9913 9.99199 10.9609C10.0591 10.9306 10.1195 10.8873 10.1698 10.8335V10.8332ZM22.2981 40.3682L23.4448 39.4496C23.6649 39.2736 23.9242 39.153 24.2006 39.0982C24.4771 39.0434 24.7627 39.056 25.0333 39.1347L26.4398 39.5447C27.0685 39.7314 27.7423 39.6963 28.3482 39.4452C28.9541 39.194 29.4552 38.7422 29.7675 38.1655L30.4722 36.8816C30.6077 36.6345 30.8006 36.4236 31.0348 36.2667C31.2689 36.1098 31.5374 36.0116 31.8175 35.9803L33.2765 35.8201C33.9277 35.7515 34.5355 35.4615 34.9985 34.9985C35.4615 34.5356 35.7515 33.9277 35.8201 33.2765C35.8364 33.1288 35.7933 32.9806 35.7003 32.8646C35.6073 32.7486 35.472 32.6743 35.3243 32.658C35.1765 32.6417 35.0283 32.6848 34.9123 32.7778C34.7963 32.8708 34.722 33.0061 34.7057 33.1539C34.6639 33.5512 34.4869 33.9221 34.2043 34.2047C33.9218 34.4872 33.5509 34.6642 33.1535 34.7061L31.6942 34.8662C31.2347 34.9171 30.7942 35.0779 30.41 35.335C30.0258 35.5921 29.7092 35.9379 29.4869 36.3432L28.7822 37.627C28.5915 37.9788 28.2858 38.2543 27.9163 38.4076C27.5467 38.5608 27.1357 38.5824 26.7521 38.4688L25.3456 38.0588C24.9021 37.9295 24.4341 37.9088 23.981 37.9986C23.5279 38.0883 23.103 38.2859 22.7424 38.5745L21.5957 39.4932C21.2852 39.7446 20.8978 39.8818 20.4983 39.8818C20.0988 39.8818 19.7114 39.7446 19.4009 39.4932L18.2542 38.5745C17.8934 38.286 17.4685 38.0886 17.0154 37.9988C16.5623 37.909 16.0942 37.9294 15.6507 38.0585L14.2445 38.4688C13.8608 38.5823 13.4498 38.5606 13.0802 38.4074C12.7106 38.2542 12.4048 37.9787 12.214 37.627L11.5093 36.3429C11.2871 35.9375 10.9704 35.5916 10.5861 35.3346C10.2019 35.0775 9.76129 34.9169 9.30176 34.8662L7.84273 34.7061C7.44538 34.6642 7.07444 34.4872 6.79191 34.2047C6.50938 33.9221 6.33238 33.5512 6.2905 33.1539L6.13034 31.6945C6.07945 31.235 5.91867 30.7946 5.66159 30.4104C5.40451 30.0262 5.05869 29.7095 4.65338 29.4872L3.36957 28.7825C3.0211 28.5887 2.74852 28.2826 2.59619 27.9141C2.44387 27.5456 2.42077 27.1364 2.53067 26.753L2.94067 25.3466C3.06989 24.9031 3.09049 24.4351 3.00073 23.982C2.91097 23.5289 2.71349 23.1041 2.42497 22.7434L1.50567 21.597C1.25442 21.2864 1.11734 20.8991 1.11734 20.4996C1.11734 20.1001 1.25442 19.7128 1.50567 19.4022L2.42433 18.2555C2.71283 17.8947 2.91033 17.4698 3.00014 17.0167C3.08995 16.5636 3.06944 16.0955 2.94035 15.652L2.53067 14.2461C2.41678 13.8625 2.43827 13.4513 2.59153 13.0816C2.7448 12.712 3.02052 12.4062 3.37245 12.2157L4.65658 11.511C5.06198 11.2887 5.40784 10.9721 5.66488 10.5878C5.92193 10.2035 6.08257 9.76293 6.13322 9.30339L6.29338 7.84436C6.33563 7.4469 6.51307 7.07599 6.79603 6.79367C7.07899 6.51136 7.4503 6.33476 7.84786 6.29341L9.3072 6.13325C9.76667 6.08236 10.2071 5.92158 10.5913 5.6645C10.9755 5.40742 11.2922 5.0616 11.5145 4.65629L12.2192 3.37248C12.4126 3.02394 12.7181 2.75103 13.0862 2.59809C13.4543 2.44516 13.8633 2.42118 14.2467 2.53006L15.6532 2.94006C16.0967 3.0693 16.5647 3.08992 17.0178 3.00016C17.4709 2.9104 17.8957 2.7129 18.2564 2.42436L19.4028 1.50506C19.7133 1.25375 20.1007 1.11664 20.5002 1.11664C20.8997 1.11664 21.2871 1.25375 21.5976 1.50506L22.7443 2.42371C23.1052 2.71201 23.5301 2.90937 23.9831 2.99917C24.4362 3.08897 24.9043 3.06859 25.3478 2.93974L26.7537 2.53006C27.1373 2.4166 27.5483 2.4383 27.9179 2.59152C28.2875 2.74474 28.5933 3.0202 28.7841 3.37184L29.4888 4.65597C29.7111 5.06137 30.0277 5.40723 30.412 5.66427C30.7963 5.92131 31.2369 6.08196 31.6964 6.13261L33.1554 6.29277C33.5528 6.33465 33.9237 6.51165 34.2063 6.79418C34.4888 7.07671 34.6658 7.44765 34.7077 7.845L34.8678 9.30435C34.9187 9.76381 35.0795 10.2043 35.3366 10.5885C35.5937 10.9727 35.9395 11.2893 36.3448 11.5116L37.6286 12.2163C37.9777 12.4097 38.251 12.7157 38.4039 13.0844C38.5567 13.4531 38.5802 13.8627 38.4704 14.2464L38.0604 15.6529C37.9312 16.0964 37.9106 16.5644 38.0003 17.0175C38.0901 17.4706 38.2876 17.8954 38.5761 18.2561L39.4947 19.4028C39.746 19.7134 39.8831 20.1008 39.8831 20.5002C39.8831 20.8997 39.746 21.2871 39.4947 21.5976L38.5761 22.7443C38.2876 23.1051 38.0901 23.53 38.0003 23.9831C37.9105 24.4362 37.931 24.9043 38.0601 25.3478L38.4704 26.754C38.5843 27.1377 38.5628 27.5488 38.4095 27.9185C38.2562 28.2882 37.9805 28.5939 37.6286 28.7845L36.3445 29.4892C36.2799 29.5245 36.2229 29.5723 36.1768 29.6297C36.1307 29.6871 36.0963 29.753 36.0757 29.8236C36.055 29.8943 36.0485 29.9684 36.0565 30.0416C36.0645 30.1147 36.0868 30.1857 36.1222 30.2502C36.1575 30.3148 36.2053 30.3718 36.2627 30.4179C36.3201 30.464 36.386 30.4983 36.4567 30.519C36.5273 30.5396 36.6014 30.5462 36.6746 30.5382C36.7478 30.5302 36.8187 30.5079 36.8832 30.4725L38.1674 29.7678C38.7441 29.4555 39.196 28.9543 39.4471 28.3484C39.6982 27.7424 39.7334 27.0686 39.5466 26.4398L39.1363 25.0339C39.0576 24.7632 39.0452 24.4775 39.1 24.2009C39.1549 23.9244 39.2754 23.6651 39.4515 23.4449L40.3701 22.2981C40.7817 21.7892 41.0062 21.1546 41.0062 20.5001C41.0062 19.8456 40.7817 19.2109 40.3701 18.702L39.4515 17.5553C39.2754 17.3352 39.1548 17.076 39.1 16.7995C39.0452 16.5231 39.0578 16.2374 39.1366 15.9668L39.5466 14.5604C39.7267 13.9314 39.6883 13.2601 39.4379 12.6557C39.1874 12.0514 38.7395 11.5498 38.1674 11.2326L36.8835 10.5279C36.6364 10.3925 36.4255 10.1995 36.2686 9.96535C36.1117 9.7312 36.0135 9.46273 35.9822 9.18263L35.822 7.72361C35.7534 7.07245 35.4634 6.46458 35.0004 6.0016C34.5375 5.53861 33.9296 5.24859 33.2784 5.18L31.8194 5.01985C31.5393 4.98867 31.2708 4.89051 31.0367 4.73368C30.8025 4.57685 30.6095 4.36595 30.4741 4.11881L29.7694 2.83468C29.4572 2.25778 28.956 1.80584 28.35 1.55469C27.7441 1.30355 27.0701 1.2685 26.4414 1.45541L25.0339 1.86477C24.7632 1.94347 24.4775 1.95592 24.2009 1.90106C23.9244 1.84621 23.665 1.72566 23.4448 1.54958L22.2981 0.630926C21.7891 0.219535 21.1545 -0.00488281 20.5 -0.00488281C19.8456 -0.00488281 19.2109 0.219535 18.702 0.630926L17.5552 1.54958C17.335 1.72527 17.0757 1.84555 16.7994 1.90034C16.523 1.95512 16.2375 1.94282 15.9668 1.86445L14.5603 1.45445C13.9315 1.2743 13.2601 1.3126 12.6558 1.56309C12.0515 1.81359 11.5499 2.26149 11.2329 2.83371L10.5282 4.11753C10.3928 4.36468 10.1998 4.5756 9.96564 4.73248C9.73149 4.88936 9.46303 4.98759 9.18292 5.01889L7.7239 5.17904C7.07274 5.24763 6.46487 5.53765 6.00189 6.00064C5.53891 6.46362 5.24888 7.07149 5.18029 7.72264L5.02014 9.18167C4.98896 9.46177 4.8908 9.73024 4.73397 9.9644C4.57714 10.1986 4.36624 10.3915 4.1191 10.527L2.83497 11.2317C2.2582 11.544 1.80636 12.0452 1.55524 12.6511C1.30412 13.2571 1.26897 13.9309 1.4557 14.5597L1.86602 15.9656C1.94472 16.2363 1.95717 16.522 1.90232 16.7986C1.84746 17.0751 1.72691 17.3344 1.55083 17.5546L0.632177 18.7014C0.220618 19.2103 -0.00390625 19.8449 -0.00390625 20.4994C-0.00390625 21.1539 0.220618 21.7886 0.632177 22.2975L1.55083 23.4442C1.72695 23.6643 1.8475 23.9235 1.9023 24.2C1.95711 24.4764 1.94455 24.7621 1.8657 25.0326L1.4557 26.4391C1.2756 27.068 1.31384 27.7393 1.5642 28.3436C1.81456 28.9479 2.26227 29.4496 2.83433 29.7669L4.11814 30.4716C4.36529 30.607 4.57621 30.8 4.73309 31.0341C4.88997 31.2683 4.9882 31.5368 5.0195 31.8169L5.17965 33.2759C5.24824 33.927 5.53827 34.5349 6.00125 34.9979C6.46423 35.4609 7.0721 35.7509 7.72326 35.8195L9.18228 35.9796C9.46238 36.0108 9.73085 36.109 9.96501 36.2658C10.1992 36.4226 10.3921 36.6335 10.5276 36.8807L11.2323 38.1648C11.5445 38.7417 12.0457 39.1936 12.6517 39.4447C13.2576 39.6959 13.9316 39.7309 14.5603 39.5441L15.9662 39.1338C16.2369 39.0553 16.5226 39.043 16.7991 39.0979C17.0756 39.1527 17.3349 39.2731 17.5552 39.449L18.702 40.3676C19.2109 40.7791 19.8456 41.0036 20.5 41.0036C21.1545 41.0036 21.7892 40.7791 22.2981 40.3676V40.3682Z" fill="#00D1FF"/>
</g>
<defs>
<clipPath id="clip0">
<rect width="41" height="41" fill="white"/>
</clipPath>
</defs>
</svg>
