<svg width="41" height="41" viewBox="0 0 41 41" fill="none" xmlns="http://www.w3.org/2000/svg">
<path d="M33.5545 27.3477H29.4458V28.7172H33.5545V27.3477Z" fill="#00D1FF"/>
<path d="M28.076 27.3477H23.9673V28.7172H28.076V27.3477Z" fill="#00D1FF"/>
<path d="M22.598 27.3477H18.4893V28.7172H22.598V27.3477Z" fill="#00D1FF"/>
<path d="M40.3933 14.2018L26.8435 0.64998C26.4587 0.261537 25.9344 0.0432621 25.3876 0.0439469H25.3815C24.8383 0.0442037 24.318 0.262564 23.9373 0.64998L9.56367 15.0215H2.05435C0.919748 15.0215 0 15.9413 0 17.0759V36.2498C0 37.3844 0.919748 38.3041 2.05435 38.3041H12.2001L14.2435 40.3496C14.6282 40.738 15.1525 40.9563 15.6993 40.9556H15.7048C16.2482 40.9554 16.7688 40.7371 17.1497 40.3496L19.1972 38.3041H34.9239C36.0585 38.3041 36.9782 37.3844 36.9782 36.2498V20.5231L40.3898 17.1115C40.7792 16.7303 40.999 16.2087 41 15.6638C41.002 15.1148 40.7834 14.588 40.3933 14.2018ZM31.6821 7.42728L24.0879 15.0215H18.2727L28.7746 4.51969L31.6821 7.42728ZM24.9069 1.61552C25.1674 1.34871 25.5949 1.34358 25.8617 1.60414C25.8656 1.60791 25.8695 1.61167 25.8731 1.61552L27.8063 3.5514L16.3355 15.0215H11.5002L24.9069 1.61552ZM16.18 39.384C16.0548 39.5148 15.8817 39.589 15.7007 39.5895C15.5172 39.589 15.3415 39.5151 15.2131 39.384L14.1373 38.3041H17.2606L16.18 39.384ZM35.6087 36.2498C35.6087 36.628 35.3021 36.9346 34.9239 36.9346H2.05435C1.67618 36.9346 1.36956 36.628 1.36956 36.2498V26.6628H35.6087V36.2498ZM35.6087 25.2933H1.36956V21.1846H35.6087V25.2933ZM35.6087 19.815H1.36956V17.0759C1.36956 16.6977 1.67618 16.3911 2.05435 16.3911H34.9239C35.3021 16.3911 35.6087 16.6977 35.6087 17.0759V19.815ZM39.425 16.1398L36.9782 18.5865V17.0759C36.9782 15.9413 36.0585 15.0215 34.9239 15.0215H26.0217L32.6477 8.39556L39.4222 15.1701C39.5538 15.299 39.6278 15.4755 39.6277 15.6597C39.6275 15.8405 39.5544 16.0136 39.425 16.1398Z" fill="#00D1FF"/>
<path d="M6.56754 35.5836C6.66752 35.4972 6.76117 35.4035 6.84762 35.3036C7.75316 36.3583 9.30907 36.5587 10.4523 35.7678C11.1902 35.252 11.6331 34.4111 11.6411 33.5108C11.6411 31.998 10.4147 30.7717 8.90197 30.7717C8.76604 30.7698 8.63028 30.7813 8.49658 30.8059L8.47877 30.8107C8.47193 30.8107 8.46508 30.8107 8.45891 30.8107C7.83157 30.915 7.26106 31.2369 6.84762 31.7201C5.85811 30.5758 4.12826 30.4504 2.98407 31.44C1.8398 32.4295 1.7144 34.1594 2.704 35.3036C3.69351 36.4478 5.42327 36.5732 6.56754 35.5836ZM8.72872 32.1556C8.78581 32.1448 8.84385 32.14 8.90197 32.1412C9.6584 32.1412 10.2715 32.7544 10.2715 33.5108C10.2709 33.8006 10.1764 34.0823 10.0024 34.3141C9.97776 34.3476 9.95859 34.3825 9.93051 34.4175C9.92572 34.4229 9.91887 34.4264 9.91339 34.4318C9.65472 34.7175 9.28733 34.8805 8.90197 34.8804C8.14571 34.8674 7.54302 34.244 7.55594 33.4877C7.56741 32.8162 8.06405 32.252 8.72872 32.1556ZM4.79327 32.1412C5.5497 32.1412 6.16284 32.7544 6.16284 33.5108C6.16284 34.2672 5.5497 34.8804 4.79327 34.8804C4.03684 34.8804 3.4237 34.2672 3.4237 33.5108C3.4237 32.7544 4.03684 32.1412 4.79327 32.1412Z" fill="#00D1FF"/>
</svg>
