<svg width="50" height="30" viewBox="0 0 50 30" fill="none" xmlns="http://www.w3.org/2000/svg">
<path d="M13.5418 25.0003H9.37516C8.80016 25.0003 8.3335 24.5337 8.3335 23.9587C8.3335 23.3837 8.80016 22.917 9.37516 22.917H13.5418C14.1168 22.917 14.5835 23.3837 14.5835 23.9587C14.5835 24.5337 14.1168 25.0003 13.5418 25.0003Z" fill="#00D1FF"/>
<path d="M47.396 25H44.7918C44.2168 25 43.7502 24.5333 43.7502 23.9583C43.7502 23.3833 44.2168 22.9167 44.7918 22.9167H46.5314L47.9356 15.4333C47.9168 11.6042 44.646 8.33333 40.6252 8.33333H33.7856L30.471 22.9167H36.4585C37.0335 22.9167 37.5002 23.3833 37.5002 23.9583C37.5002 24.5333 37.0335 25 36.4585 25H29.1668C28.8502 25 28.5502 24.8563 28.3522 24.6083C28.1543 24.3625 28.0793 24.0375 28.1502 23.7292L31.9377 7.0625C32.046 6.58542 32.4668 6.25 32.9543 6.25H40.6252C45.7939 6.25 50.0002 10.4563 50.0002 15.625L48.4189 24.15C48.3272 24.6437 47.8981 25 47.396 25Z" fill="#00D1FF"/>
<path d="M40.6248 29.1667C37.754 29.1667 35.4165 26.8312 35.4165 23.9583C35.4165 21.0854 37.754 18.75 40.6248 18.75C43.4957 18.75 45.8332 21.0854 45.8332 23.9583C45.8332 26.8312 43.4957 29.1667 40.6248 29.1667ZM40.6248 20.8333C38.9019 20.8333 37.4998 22.2354 37.4998 23.9583C37.4998 25.6812 38.9019 27.0833 40.6248 27.0833C42.3477 27.0833 43.7498 25.6812 43.7498 23.9583C43.7498 22.2354 42.3477 20.8333 40.6248 20.8333Z" fill="#00D1FF"/>
<path d="M17.7083 29.1667C14.8375 29.1667 12.5 26.8312 12.5 23.9583C12.5 21.0854 14.8375 18.75 17.7083 18.75C20.5792 18.75 22.9167 21.0854 22.9167 23.9583C22.9167 26.8312 20.5792 29.1667 17.7083 29.1667ZM17.7083 20.8333C15.9854 20.8333 14.5833 22.2354 14.5833 23.9583C14.5833 25.6812 15.9854 27.0833 17.7083 27.0833C19.4313 27.0833 20.8333 25.6812 20.8333 23.9583C20.8333 22.2354 19.4313 20.8333 17.7083 20.8333Z" fill="#00D1FF"/>
<path d="M13.5415 6.25033H5.20817C4.63317 6.25033 4.1665 5.78366 4.1665 5.20866C4.1665 4.63366 4.63317 4.16699 5.20817 4.16699H13.5415C14.1165 4.16699 14.5832 4.63366 14.5832 5.20866C14.5832 5.78366 14.1165 6.25033 13.5415 6.25033Z" fill="#00D1FF"/>
<path d="M13.5418 12.5003H3.12516C2.55016 12.5003 2.0835 12.0337 2.0835 11.4587C2.0835 10.8837 2.55016 10.417 3.12516 10.417H13.5418C14.1168 10.417 14.5835 10.8837 14.5835 11.4587C14.5835 12.0337 14.1168 12.5003 13.5418 12.5003Z" fill="#00D1FF"/>
<path d="M13.5417 18.7503H1.04167C0.466667 18.7503 0 18.2837 0 17.7087C0 17.1337 0.466667 16.667 1.04167 16.667H13.5417C14.1167 16.667 14.5833 17.1337 14.5833 17.7087C14.5833 18.2837 14.1167 18.7503 13.5417 18.7503Z" fill="#00D1FF"/>
<path d="M29.1668 25H21.8752C21.3002 25 20.8335 24.5333 20.8335 23.9583C20.8335 23.3833 21.3002 22.9167 21.8752 22.9167H28.3356L33.0689 2.08333H9.37516C8.80016 2.08333 8.3335 1.61667 8.3335 1.04167C8.3335 0.466667 8.80016 0 9.37516 0H34.3752C34.6918 0 34.9918 0.14375 35.1897 0.391667C35.3877 0.6375 35.4627 0.9625 35.3918 1.27083L30.1835 24.1875C30.0752 24.6646 29.6522 25 29.1668 25Z" fill="#00D1FF"/>
</svg>
